<svg width="180" height="23" viewBox="0 0 180 23" fill="none" xmlns="http://www.w3.org/2000/svg">
<path d="M0.5 22V1H8.75V3.25H3.5V10H7.25V12.25H3.5V19.75H8.75V22H0.5ZM12.0416 22V1H15.0416V19.75H20.2916V22H12.0416ZM23.1378 22V1H31.3878V3.25H26.1378V10H29.8878V12.25H26.1378V19.75H31.3878V22H23.1378ZM40.3044 22.2109C39.3434 22.2109 38.5075 22.0742 37.7966 21.8008C37.0934 21.5273 36.5192 21.1562 36.0739 20.6875C35.6286 20.2188 35.2731 19.6211 35.0075 18.8945C34.7419 18.168 34.5583 17.4023 34.4567 16.5977C34.3552 15.793 34.3044 14.8672 34.3044 13.8203V8.5C34.3044 3.35938 36.3434 0.789062 40.4216 0.789062C41.3981 0.789062 42.2458 0.9375 42.9645 1.23438C43.6833 1.52344 44.2653 1.94922 44.7106 2.51172C45.1559 3.07422 45.4919 3.73438 45.7184 4.49219C45.945 5.24219 46.0778 6.11328 46.1169 7.10547C46.1247 7.24609 46.1286 7.46094 46.1286 7.75H43.1286V7.11719C43.1208 6.625 43.0934 6.20312 43.0466 5.85156C43.0075 5.49219 42.9294 5.14062 42.8122 4.79688C42.7028 4.45312 42.5505 4.17578 42.3552 3.96484C42.1598 3.74609 41.8981 3.57422 41.57 3.44922C41.2497 3.31641 40.8669 3.25 40.4216 3.25C39.8122 3.25 39.2966 3.36328 38.8747 3.58984C38.4606 3.80859 38.1403 4.13281 37.9137 4.5625C37.695 4.98438 37.5387 5.45312 37.445 5.96875C37.3512 6.47656 37.3044 7.07031 37.3044 7.75V14.5C37.3044 15 37.32 15.4531 37.3512 15.8594C37.3825 16.2578 37.4333 16.668 37.5036 17.0898C37.5817 17.5039 37.6911 17.8633 37.8317 18.168C37.9802 18.4727 38.1598 18.75 38.3708 19C38.5895 19.2422 38.8591 19.4297 39.1794 19.5625C39.5075 19.6875 39.8825 19.75 40.3044 19.75C40.8044 19.75 41.238 19.6523 41.6052 19.457C41.9723 19.2617 42.2614 19.0117 42.4723 18.707C42.6911 18.3945 42.863 18 42.988 17.5234C43.113 17.0469 43.195 16.5742 43.2341 16.1055C43.2809 15.6367 43.3044 15.1016 43.3044 14.5V13.75H40.3044V11.5234H46.3044V22H44.0544L43.3044 19.75C42.7184 21.3906 41.7184 22.2109 40.3044 22.2109ZM53.3694 14.5H56.3694L54.8694 5.5L53.3694 14.5ZM48.8694 22L53.3694 1H56.3694L60.8694 22H57.8694L56.7444 16.75H52.9944L51.8694 22H48.8694ZM63.9969 22V1H66.2469L71.4969 13.9844V1H74.4969V22H72.3641L66.9969 8.03125V22H63.9969ZM81.1752 22V3.67188H77.4252V1H87.9252V3.67188H84.1752V22H81.1752Z" fill="#434343"/>
<path d="M92.998 22L89.623 1.83203H91.287L94.0409 19.082L96.6425 1.83203H98.9042L101.283 19.082L104.025 1.83203H105.678L102.326 22H100.275L97.7558 4.1875L95.037 22H92.998ZM110.575 15.5664H114.793L112.672 3.68359L110.575 15.5664ZM109.333 22H107.54L111.524 1.83203H113.844L117.829 22H116.024L115.016 16.75H110.364L109.333 22ZM122.808 22V3.26172H118.882V1.83203H128.55V3.26172H124.589V22H122.808ZM130.916 16.1523V7.70312C130.916 6.98438 130.962 6.33203 131.056 5.74609C131.15 5.16016 131.314 4.60156 131.548 4.07031C131.791 3.53906 132.099 3.09375 132.474 2.73438C132.849 2.36719 133.326 2.07812 133.904 1.86719C134.49 1.65625 135.166 1.55078 135.931 1.55078C139.087 1.55078 140.666 3.60156 140.666 7.70312V8.52344H138.966V7.30469C138.966 6.65625 138.916 6.08203 138.814 5.58203C138.72 5.08203 138.56 4.63281 138.334 4.23438C138.107 3.82812 137.791 3.51953 137.384 3.30859C136.986 3.08984 136.502 2.98047 135.931 2.98047C135.416 2.98047 134.966 3.05469 134.584 3.20312C134.201 3.34375 133.888 3.53906 133.646 3.78906C133.412 4.03906 133.22 4.35156 133.072 4.72656C132.931 5.10156 132.834 5.49609 132.779 5.91016C132.724 6.31641 132.697 6.78125 132.697 7.30469V16.5508C132.697 17.2148 132.744 17.793 132.837 18.2852C132.931 18.7695 133.091 19.2188 133.318 19.6328C133.552 20.0391 133.888 20.3516 134.326 20.5703C134.763 20.7812 135.298 20.8867 135.931 20.8867C136.502 20.8867 136.986 20.7812 137.384 20.5703C137.791 20.3516 138.107 20.0391 138.334 19.6328C138.56 19.2266 138.72 18.7734 138.814 18.2734C138.916 17.7734 138.966 17.1992 138.966 16.5508V15.168H140.666V16.1523C140.666 16.8633 140.623 17.5117 140.537 18.0977C140.451 18.6836 140.295 19.2461 140.068 19.7852C139.849 20.3164 139.564 20.7656 139.212 21.1328C138.861 21.4922 138.408 21.7812 137.853 22C137.298 22.2109 136.658 22.3164 135.931 22.3164C135.15 22.3164 134.462 22.2109 133.869 22C133.283 21.7812 132.802 21.4922 132.427 21.1328C132.06 20.7656 131.759 20.3164 131.525 19.7852C131.298 19.2461 131.138 18.6875 131.045 18.1094C130.959 17.5234 130.916 16.8711 130.916 16.1523ZM144.824 22V1.83203H146.606V10.9609H152.817V1.83203H154.598V22H152.817V12.2031H146.606V22H144.824ZM159.46 22V1.83203H166.491V3.26172H161.241V10.9023H164.991V12.25H161.241V20.5703H166.491V22H159.46ZM169.314 17.1367L170.884 16.6797C170.947 17.2422 171.056 17.7617 171.212 18.2383C171.376 18.7148 171.595 19.1602 171.868 19.5742C172.142 19.9805 172.501 20.3008 172.947 20.5352C173.4 20.7695 173.911 20.8867 174.482 20.8867C175.396 20.8867 176.103 20.6328 176.603 20.125C177.103 19.6172 177.353 18.8984 177.353 17.9688C177.353 17.1953 177.122 16.4492 176.661 15.7305C176.208 15.0117 175.536 14.1836 174.646 13.2461L171.493 9.92969C170.806 9.20312 170.279 8.52344 169.911 7.89062C169.544 7.25781 169.361 6.59375 169.361 5.89844C169.361 4.57812 169.794 3.52344 170.661 2.73438C171.529 1.94531 172.642 1.55078 174.001 1.55078C175.322 1.55078 176.384 1.92578 177.189 2.67578C177.993 3.41797 178.529 4.5 178.794 5.92188L178.829 6.10938L177.329 6.57812L177.306 6.41406C177.15 5.40625 176.786 4.58203 176.216 3.94141C175.654 3.30078 174.915 2.98047 174.001 2.98047C173.111 2.98047 172.4 3.20703 171.868 3.66016C171.345 4.11328 171.083 4.78125 171.083 5.66406C171.083 6.19531 171.224 6.71875 171.505 7.23438C171.794 7.75 172.204 8.29688 172.736 8.875L175.7 12.0977C175.779 12.1836 175.974 12.3984 176.286 12.7422C176.599 13.0781 176.802 13.3008 176.896 13.4102C176.997 13.5195 177.177 13.7305 177.435 14.043C177.7 14.3555 177.88 14.5938 177.974 14.7578C178.075 14.9141 178.216 15.1406 178.396 15.4375C178.575 15.7266 178.697 15.9805 178.759 16.1992C178.829 16.418 178.896 16.6719 178.958 16.9609C179.021 17.25 179.052 17.5352 179.052 17.8164C179.052 19.2539 178.607 20.3633 177.716 21.1445C176.833 21.9258 175.689 22.3164 174.283 22.3164C173.564 22.3164 172.911 22.1797 172.325 21.9062C171.74 21.625 171.243 21.2422 170.837 20.7578C170.439 20.2734 170.111 19.7266 169.853 19.1172C169.603 18.5078 169.423 17.8477 169.314 17.1367Z" fill="black"/>
</svg>
